#!OML:ASF G:\JayActor3\Patient Classification 1\Patient 1\Session 5\male.ASF
:FULLY-SPECIFIED
:DEGREES
320
root 48.5692 17.7251 -4.03492 187.635 -80.3149 -165.858
lowerback 20.7685 -0.185309 -0.665496
upperback 5.28622 -0.892972 -1.77115
thorax -5.88269 -0.588592 -1.28166
lowerneck 6.51348 2.71935 2.75039
upperneck -21.9994 3.87878 0.635421
head -7.80532 1.3429 -0.554345
rclavicle -4.45278e-014 -7.15625e-015
rhumerus -31.0005 -2.60455 -90.1511
rradius 36.2429
rwrist -1.18661
rhand -20.994 -8.20941
rfingers 7.12502
rthumb 5.38011 -38.1211
lclavicle -4.45278e-014 -7.15625e-015
lhumerus -33.7296 4.16493 81.2595
lradius 34.9041
lwrist 23.7268
lhand -20.6578 15.8261
lfingers 7.12502
lthumb 5.70479 45.7293
rfemur -55.2883 2.47808 19.9912
rtibia 32.7149
rfoot 13.5869 -16.5956
rtoes 6.10874
lfemur -23.641 19.0497 -25.1009
ltibia 17.3737
lfoot 12.9567 -11.6685
ltoes -30.5804
321
root 48.5171 17.7309 -4.04288 188.258 -80.3793 -166.703
lowerback 20.9473 -0.19995 -0.817966
upperback 5.35389 -0.957419 -1.8135
thorax -5.90268 -0.621724 -1.22289
lowerneck 6.54964 2.72912 2.73873
upperneck -22.038 3.90181 0.680987
head -7.82586 1.34885 -0.540188
rclavicle 0 2.38542e-015
rhumerus -30.9927 -2.62835 -90.1357
rradius 36.2204
rwrist -1.22175
rhand -20.9974 -8.20092
rfingers 7.12502
rthumb 5.37689 -38.1127
lclavicle 0 2.38542e-015
lhumerus -33.7502 4.12754 81.2695
lradius 34.9541
lwrist 23.7916
lhand -20.6392 15.8122
lfingers 7.12502
lthumb 5.72268 45.7149
rfemur -55.6034 2.46133 20.0391
rtibia 32.5549
rfoot 14.1221 -16.9627
rtoes 6.6318
lfemur -22.8755 19.045 -25.1595
ltibia 16.7747
lfoot 13.1397 -11.5433
ltoes -30.714
322
root 48.463 17.735 -4.05167 189.045 -80.4383 -167.72
lowerback 21.1178 -0.207581 -0.993646
upperback 5.42222 -1.01885 -1.86421
thorax -5.91692 -0.653325 -1.16051
lowerneck 6.59166 2.73483 2.73434
upperneck -22.076 3.91997 0.723232
head -7.84714 1.35225 -0.528026
rclavicle -1.66979e-014 -1.59028e-015
rhumerus -30.9967 -2.65464 -90.1172
rradius 36.208
rwrist -1.26155
rhand -21.0083 -8.21199
rfingers 7.12502
rthumb 5.36634 -38.124
lclavicle -1.66979e-014 -1.59028e-015
lhumerus -33.7729 4.09088 81.2798
lradius 34.9924
lwrist 23.8671
lhand -20.6206 15.8011
lfingers 7.12502
lthumb 5.74067 45.7034
rfemur -55.9102 2.45492 20.0435
rtibia 32.4086
rfoot 14.6097 -17.3252
rtoes 7.16086
lfemur -22.089 19.0464 -25.2505
ltibia 16.1663
lfoot 13.2962 -11.3999
ltoes -30.8636
323
root 48.407 17.7374 -4.06127 189.93 -80.5009 -168.834
lowerback 21.2811 -0.212919 -1.1777
upperback 5.48965 -1.07969 -1.9179
thorax -5.9279 -0.684604 -1.09659
lowerneck 6.63053 2.73638 2.73353
upperneck -22.1121 3.93203 0.762457
head -7.86716 1.35277 -0.516865
rclavicle 4.13472e-014 -2.14687e-014
rhumerus -31.0058 -2.68611 -90.0929
rradius 36.197
rwrist -1.29304
rhand -21.0284 -8.22343
rfingers 7.12502
rthumb 5.34694 -38.136
lclavicle 4.13472e-014 -2.14687e-014
lhumerus -33.7957 4.06133 81.2913
lradius 35.018
lwrist 23.9428
lhand -20.5969 15.7891
lfingers 7.12502
lthumb 5.7635 45.6907
rfemur -56.205 2.44667 20.022
rtibia 32.2611
rfoot 15.0268 -17.7024
rtoes 7.82095
lfemur -21.2939 19.0481 -25.3621
ltibia 15.5571
lfoot 13.4249 -11.2358
ltoes -31.0293
324
root 48.3493 17.7383 -4.07168 190.885 -80.5681 -170.012
lowerback 21.429 -0.217201 -1.36276
upperback 5.55374 -1.1394 -1.97384
thorax -5.93403 -0.71523 -1.03481
lowerneck 6.67188 2.73418 2.73929
upperneck -22.1517 3.93819 0.793312
head -7.88854 1.35062 -0.509115
rclavicle 1.03368e-014 4.13472e-014
rhumerus -31.0192 -2.72926 -90.0646
rradius 36.183
rwrist -1.30819
rhand -21.0493 -8.23298
rfingers 7.12502
rthumb 5.32676 -38.146
lclavicle 1.03368e-014 4.13472e-014
lhumerus -33.8218 4.03325 81.3022
lradius 35.0308
lwrist 24.0115
lhand -20.5798 15.7812
lfingers 7.12502
lthumb 5.78001 45.6824
rfemur -56.4891 2.42995 19.9848
rtibia 32.0982
rfoot 15.4397 -18.0439
rtoes 8.4623
lfemur -20.5048 19.0538 -25.4912
ltibia 14.9581
lfoot 13.5219 -11.0543
ltoes -31.2056
325
root 48.2895 17.7383 -4.08271 191.831 -80.6473 -171.171
lowerback 21.5641 -0.226046 -1.53543
upperback 5.61503 -1.20157 -2.02377
thorax -5.93627 -0.746994 -0.972945
lowerneck 6.70562 2.73455 2.74642
upperneck -22.1848 3.94536 0.812155
head -7.90603 1.35029 -0.505472
rclavicle -4.13472e-014 -8.74653e-015
rhumerus -31.0349 -2.77097 -90.0263
rradius 36.1656
rwrist -1.31733
rhand -21.0587 -8.20279
rfingers 7.12502
rthumb 5.3177 -38.1161
lclavicle -4.13472e-014 -8.74653e-015
lhumerus -33.8551 4.01407 81.3165
lradius 35.0345
lwrist 24.0705
lhand -20.5756 15.7676
lfingers 7.12502
lthumb 5.78415 45.6687
rfemur -56.7553 2.39711 19.949
rtibia 31.912
rfoot 15.8214 -18.366
rtoes 9.16324
lfemur -19.714 19.0525 -25.6183
ltibia 14.3682
lfoot 13.5909 -10.8437
ltoes -31.3535
326
root 48.228 17.7372 -4.09449 192.777 -80.7456 -172.315
lowerback 21.6825 -0.241433 -1.69454
upperback 5.67013 -1.26782 -2.06653
thorax -5.93622 -0.780498 -0.910075
lowerneck 6.73949 2.736 2.75599
upperneck -22.222 3.95132 0.816153
head -7.92449 1.3505 -0.507056
rclavicle -1.35174e-014 -5.40694e-014
rhumerus -31.0496 -2.82469 -89.9774
rradius 36.1355
rwrist -1.30704
rhand -21.0548 -8.15259
rfingers 7.12502
rthumb 5.32147 -38.0658
lclavicle -1.35174e-014 -5.40694e-014
lhumerus -33.8926 4.00095 81.3359
lradius 35.0255
lwrist 24.11
lhand -20.5828 15.771
lfingers 7.12502
lthumb 5.77712 45.6722
rfemur -57.0114 2.35889 19.9018
rtibia 31.7003
rfoot 16.1735 -18.6711
rtoes 9.87098
lfemur -18.9356 19.0404 -25.7458
ltibia 13.7837
lfoot 13.6378 -10.609
ltoes -31.4886
